<svg viewBox="308.6492 230.889 272.7014 76.8202" width="5000" height="1408.50395340838" xmlns="http://www.w3.org/2000/svg" xmlns:xlink="http://www.w3.org/1999/xlink" preserveAspectRatio="none"><defs></defs><style>.aB-sXR1wBhvAcolors-0 {fill:#C9C9C9;fill-opacity:1;}.aB-sXR1wBhvAcolors-1 {fill:#6D6D6D;fill-opacity:1;}.aB-sXR1wBhvAcolors-2 {fill:#292929;fill-opacity:1;}.companyName {fill:#292929;fill-opacity:1;}.text {fill:#2B2B2B;fill-opacity:1;}</style><g opacity="1" transform="rotate(0 308.6492 231.7293)">
<svg width="272.7014" height="50" x="308.6492" y="231.7293" version="1.1" preserveAspectRatio="none" viewBox="2.72 -28.4 154.88000000000002 28.4">
  <g transform="matrix(1 0 0 1 0 0)" class="companyName"><path d="M22.36 0L9.28-16.24L9.28 0L2.72 0L2.72-28.40L7.84-28.40L21.08-11.72L21.08-28.40L27.64-28.40L27.64 0L22.36 0Z M81.56-28.40L81.56-22.64L72.92-22.64L72.92 0L66.36 0L66.36-22.64L57.68-22.64L57.68-28.40L81.56-28.40Z M91.32 0L84.76 0L84.76-28.40L91.32-28.40L91.32 0Z M118.40-28.40L118.40-22.64L109.76-22.64L109.76 0L103.20 0L103.20-22.64L94.52-22.64L94.52-28.40L118.40-28.40Z M128.16 0L121.60 0L121.60-28.40L128.16-28.40L128.16 0Z M130.96 0L141.32-28.40L147.24-28.40L157.60 0L150.88 0L148.68-6.36L139.84-6.36L137.68 0L130.96 0ZM140.88-10.88L147.60-10.88L144.28-20.92L140.88-10.88Z"/></g>
</svg>
</g><g opacity="1" transform="rotate(0 355.1692 230.889)">
<svg width="49.9912" height="50" x="355.1692" y="230.889" version="1.1" preserveAspectRatio="none" viewBox="20 19.999515533447266 159.9993896484375 160.00048828125">
  <g transform="matrix(-1 0 0 1 199.9993896484375 0)" ><g><path d="M97.648 102.445l64.498 43.182C147.743 167.089 123.516 180 97.648 180 55.052 180 20 144.991 20 102.446a77.496 77.496 0 0 1 13.443-43.615l64.205 43.614z" data-color="1" class="aB-sXR1wBhvAcolors-0"></path><path d="M99.17 103.358l34.399 23.03A41.46 41.46 0 0 1 99.17 144.72c-22.718 0-41.413-18.672-41.413-41.362a41.33 41.33 0 0 1 7.169-23.261c.001-.001 34.244 23.261 34.244 23.261z" data-color="2" class="aB-sXR1wBhvAcolors-1"></path><path d="M67.246 73.958c13.335-18.469 39.015-23.163 58.036-10.327s24.242 38.384 12.062 57.633l29.329 19.793c24.025-35.513 14.676-83.753-20.88-107.748S61.939 18.652 37.917 54.165l29.329 19.793z" data-color="3" class="aB-sXR1wBhvAcolors-2"></path></g></g>
</svg>
</g><g opacity="1" transform="rotate(0 308.6492 287.4675)">
<svg width="272.7014" height="20.2417" x="308.6492" y="287.4675" version="1.1" preserveAspectRatio="none" viewBox="3.72 -29.2 513.56 38.12">
  <g transform="matrix(1 0 0 1 0 0)" class="text"><path d="M24.64-7.36L24.64-7.36Q24.64-5.80 24.04-4.46Q23.44-3.12 22.40-2.12Q21.36-1.12 19.96-0.56Q18.56 0 17 0L17 0L3.72 0L3.72-28.40L16.96-28.40Q18.44-28.40 19.64-27.76Q20.84-27.12 21.68-26.10Q22.52-25.08 22.98-23.78Q23.44-22.48 23.44-21.16L23.44-21.16Q23.44-19 22.36-17.20Q21.28-15.40 19.36-14.56L19.36-14.56Q21.80-13.84 23.22-11.86Q24.64-9.88 24.64-7.36ZM22.60-7.64L22.60-7.64Q22.60-8.76 22.20-9.82Q21.80-10.88 21.08-11.70Q20.36-12.52 19.38-13Q18.40-13.48 17.28-13.48L17.28-13.48L5.76-13.48L5.76-1.84L17-1.84Q18.20-1.84 19.22-2.32Q20.24-2.80 20.98-3.62Q21.72-4.44 22.16-5.48Q22.60-6.52 22.60-7.64ZM16.40-26.56L5.76-26.56L5.76-15.20L16.16-15.20Q17.32-15.20 18.28-15.68Q19.24-16.16 19.94-16.94Q20.64-17.72 21.04-18.76Q21.44-19.80 21.44-20.88L21.44-20.88Q21.44-22.04 21.06-23.06Q20.68-24.08 20.02-24.86Q19.36-25.64 18.44-26.10Q17.52-26.56 16.40-26.56L16.40-26.56Z M33.20 0L31.20 0L31.20-20.80L33.20-20.80L33.20 0ZM33.20-25.52L31.20-25.52L31.20-29.20L33.20-29.20L33.20-25.52Z M49.80 0.40L49.80 0.40Q47.60 0.40 45.74-0.46Q43.88-1.32 42.52-2.80Q41.16-4.28 40.40-6.24Q39.64-8.20 39.64-10.36L39.64-10.36Q39.64-12.56 40.42-14.52Q41.20-16.48 42.56-17.96Q43.92-19.44 45.78-20.30Q47.64-21.16 49.80-21.16L49.80-21.16Q51.96-21.16 53.80-20.30Q55.64-19.44 57.02-17.96Q58.40-16.48 59.18-14.52Q59.96-12.56 59.96-10.36L59.96-10.36Q59.96-8.20 59.18-6.24Q58.40-4.28 57.04-2.80Q55.68-1.32 53.82-0.46Q51.96 0.40 49.80 0.40ZM41.64-10.28L41.64-10.28Q41.64-8.44 42.28-6.82Q42.92-5.20 44.02-4Q45.12-2.80 46.60-2.10Q48.08-1.40 49.76-1.40L49.76-1.40Q51.44-1.40 52.92-2.10Q54.40-2.80 55.52-4.04Q56.64-5.28 57.28-6.90Q57.92-8.52 57.92-10.40L57.92-10.40Q57.92-12.24 57.28-13.86Q56.64-15.48 55.52-16.70Q54.40-17.92 52.94-18.64Q51.48-19.36 49.80-19.36L49.80-19.36Q48.12-19.36 46.64-18.64Q45.16-17.92 44.06-16.68Q42.96-15.44 42.30-13.78Q41.64-12.12 41.64-10.28Z M74.76-2.60L75.36-1Q75.20-0.92 74.82-0.70Q74.44-0.48 73.86-0.28Q73.28-0.08 72.56 0.08Q71.84 0.24 71 0.24L71 0.24Q70.16 0.24 69.42 0Q68.68-0.24 68.12-0.72Q67.56-1.20 67.24-1.88Q66.92-2.56 66.92-3.48L66.92-3.48L66.92-19.16L64-19.16L64-20.80L66.92-20.80L66.92-27.92L68.92-27.92L68.92-20.80L73.76-20.80L73.76-19.16L68.92-19.16L68.92-3.96Q68.92-2.80 69.72-2.22Q70.52-1.64 71.52-1.64L71.52-1.64Q72.76-1.64 73.66-2.06Q74.56-2.48 74.76-2.60L74.76-2.60Z M88.80 0.40L88.80 0.40Q86.60 0.40 84.72-0.46Q82.84-1.32 81.46-2.82Q80.08-4.32 79.30-6.28Q78.52-8.24 78.52-10.48L78.52-10.48Q78.52-12.68 79.30-14.62Q80.08-16.56 81.44-18.02Q82.80-19.48 84.66-20.32Q86.52-21.16 88.68-21.16L88.68-21.16Q90.88-21.16 92.76-20.30Q94.64-19.44 96-17.98Q97.36-16.52 98.12-14.58Q98.88-12.64 98.88-10.48L98.88-10.48Q98.88-10.28 98.88-9.98Q98.88-9.68 98.84-9.60L98.84-9.60L80.60-9.60Q80.72-7.80 81.44-6.26Q82.16-4.72 83.26-3.60Q84.36-2.48 85.80-1.84Q87.24-1.20 88.88-1.20L88.88-1.20Q89.96-1.20 91-1.50Q92.04-1.80 92.94-2.32Q93.84-2.84 94.54-3.58Q95.24-4.32 95.64-5.20L95.64-5.20L97.40-4.72Q96.96-3.60 96.10-2.66Q95.24-1.72 94.10-1.04Q92.96-0.36 91.60 0.02Q90.24 0.40 88.80 0.40ZM80.56-11.20L96.96-11.20Q96.84-13.04 96.14-14.56Q95.44-16.08 94.34-17.18Q93.24-18.28 91.80-18.90Q90.36-19.52 88.72-19.52L88.72-19.52Q87.08-19.52 85.64-18.90Q84.20-18.28 83.10-17.18Q82-16.08 81.34-14.54Q80.68-13 80.56-11.20L80.56-11.20Z M103.44-10.48L103.44-10.48Q103.44-12.68 104.20-14.64Q104.96-16.60 106.32-18.04Q107.68-19.48 109.56-20.32Q111.44-21.16 113.68-21.16L113.68-21.16Q116.52-21.16 118.68-19.88Q120.84-18.60 121.92-16.32L121.92-16.32L119.96-15.68Q119.04-17.40 117.34-18.38Q115.64-19.36 113.60-19.36L113.60-19.36Q111.88-19.36 110.40-18.68Q108.92-18 107.82-16.80Q106.72-15.60 106.08-13.98Q105.44-12.36 105.44-10.48L105.44-10.48Q105.44-8.60 106.10-6.94Q106.76-5.28 107.86-4.06Q108.96-2.84 110.46-2.12Q111.96-1.40 113.64-1.40L113.64-1.40Q114.72-1.40 115.78-1.72Q116.84-2.04 117.74-2.56Q118.64-3.08 119.30-3.78Q119.96-4.48 120.20-5.24L120.20-5.24L122.16-4.68Q121.76-3.60 120.94-2.66Q120.12-1.72 119-1.04Q117.88-0.36 116.52 0.02Q115.16 0.40 113.72 0.40L113.72 0.40Q111.52 0.40 109.64-0.46Q107.76-1.32 106.38-2.82Q105.00-4.32 104.22-6.28Q103.44-8.24 103.44-10.48Z M145.28-11.96L145.28 0L143.28 0L143.28-11.60Q143.28-19.32 138.12-19.32L138.12-19.32Q136.84-19.32 135.62-18.84Q134.40-18.36 133.34-17.48Q132.28-16.60 131.48-15.42Q130.68-14.24 130.28-12.88L130.28-12.88L130.28 0L128.28 0L128.28-29.20L130.28-29.20L130.28-15.84Q131.56-18.28 133.82-19.72Q136.08-21.16 138.68-21.16L138.68-21.16Q140.40-21.16 141.64-20.52Q142.88-19.88 143.70-18.68Q144.52-17.48 144.90-15.78Q145.28-14.08 145.28-11.96L145.28-11.96Z M169.92-11.96L169.92 0L167.92 0L167.92-11.60Q167.92-15.64 166.78-17.48Q165.64-19.32 163.16-19.32L163.16-19.32Q161.84-19.32 160.54-18.84Q159.24-18.36 158.12-17.48Q157.00-16.60 156.16-15.42Q155.32-14.24 154.92-12.88L154.92-12.88L154.92 0L152.92 0L152.92-20.80L154.80-20.80L154.80-15.84Q155.44-17.04 156.38-18.02Q157.32-19 158.50-19.70Q159.68-20.40 161.00-20.78Q162.32-21.16 163.72-21.16L163.72-21.16Q167.12-21.16 168.52-18.78Q169.92-16.40 169.92-11.96L169.92-11.96Z M186.28 0.40L186.28 0.40Q184.08 0.40 182.22-0.46Q180.36-1.32 179.00-2.80Q177.64-4.28 176.88-6.24Q176.12-8.20 176.12-10.36L176.12-10.36Q176.12-12.56 176.90-14.52Q177.68-16.48 179.04-17.96Q180.40-19.44 182.26-20.30Q184.12-21.16 186.28-21.16L186.28-21.16Q188.44-21.16 190.28-20.30Q192.12-19.44 193.50-17.96Q194.88-16.48 195.66-14.52Q196.44-12.56 196.44-10.36L196.44-10.36Q196.44-8.20 195.66-6.24Q194.88-4.28 193.52-2.80Q192.16-1.32 190.30-0.46Q188.44 0.40 186.28 0.40ZM178.12-10.28L178.12-10.28Q178.12-8.44 178.76-6.82Q179.40-5.20 180.50-4Q181.60-2.80 183.08-2.10Q184.56-1.40 186.24-1.40L186.24-1.40Q187.92-1.40 189.40-2.10Q190.88-2.80 192.00-4.04Q193.12-5.28 193.76-6.90Q194.40-8.52 194.40-10.40L194.40-10.40Q194.40-12.24 193.76-13.86Q193.12-15.48 192.00-16.70Q190.88-17.92 189.42-18.64Q187.96-19.36 186.28-19.36L186.28-19.36Q184.60-19.36 183.12-18.64Q181.64-17.92 180.54-16.68Q179.44-15.44 178.78-13.78Q178.12-12.12 178.12-10.28Z M203.00-3.52L203.00-29.20L205.04-29.20L205.04-4.12Q205.04-2.96 205.70-2.28Q206.36-1.60 207.52-1.60L207.52-1.60Q207.96-1.60 208.58-1.70Q209.20-1.80 209.72-2L209.72-2L210.12-0.40Q209.44-0.12 208.44 0.06Q207.44 0.24 206.72 0.24L206.72 0.24Q205.04 0.24 204.02-0.78Q203.00-1.80 203.00-3.52L203.00-3.52Z M223.52 0.40L223.52 0.40Q221.32 0.40 219.46-0.46Q217.60-1.32 216.24-2.80Q214.88-4.28 214.12-6.24Q213.36-8.20 213.36-10.36L213.36-10.36Q213.36-12.56 214.14-14.52Q214.92-16.48 216.28-17.96Q217.64-19.44 219.50-20.30Q221.36-21.16 223.52-21.16L223.52-21.16Q225.68-21.16 227.52-20.30Q229.36-19.44 230.74-17.96Q232.12-16.48 232.90-14.52Q233.68-12.56 233.68-10.36L233.68-10.36Q233.68-8.20 232.90-6.24Q232.12-4.28 230.76-2.80Q229.40-1.32 227.54-0.46Q225.68 0.40 223.52 0.40ZM215.36-10.28L215.36-10.28Q215.36-8.44 216.00-6.82Q216.64-5.20 217.74-4Q218.84-2.80 220.32-2.10Q221.80-1.40 223.48-1.40L223.48-1.40Q225.16-1.40 226.64-2.10Q228.12-2.80 229.24-4.04Q230.36-5.28 231.00-6.90Q231.64-8.52 231.64-10.40L231.64-10.40Q231.64-12.24 231.00-13.86Q230.36-15.48 229.24-16.70Q228.12-17.92 226.66-18.64Q225.20-19.36 223.52-19.36L223.52-19.36Q221.84-19.36 220.36-18.64Q218.88-17.92 217.78-16.68Q216.68-15.44 216.02-13.78Q215.36-12.12 215.36-10.28Z M248.48 0.32L248.48 0.32Q246.32 0.32 244.52-0.58Q242.72-1.48 241.42-2.98Q240.12-4.48 239.38-6.40Q238.64-8.32 238.64-10.36L238.64-10.36Q238.64-12.48 239.34-14.44Q240.04-16.40 241.32-17.90Q242.60-19.40 244.38-20.28Q246.16-21.16 248.32-21.16L248.32-21.16Q251.04-21.16 253.06-19.74Q255.08-18.32 256.48-16.28L256.48-16.28L256.48-20.80L258.32-20.80L258.32 0.40Q258.32 2.52 257.52 4.12Q256.72 5.72 255.38 6.78Q254.04 7.84 252.26 8.38Q250.48 8.92 248.52 8.92L248.52 8.92Q246.72 8.92 245.28 8.58Q243.84 8.24 242.74 7.62Q241.64 7 240.78 6.10Q239.92 5.20 239.28 4.12L239.28 4.12L240.64 3.20Q241.88 5.32 244.00 6.30Q246.12 7.28 248.52 7.28L248.52 7.28Q250.12 7.28 251.54 6.84Q252.96 6.40 254.02 5.54Q255.08 4.68 255.70 3.40Q256.32 2.12 256.32 0.40L256.32 0.40L256.32-4.16Q255.04-2.12 252.92-0.90Q250.80 0.32 248.48 0.32ZM248.96-1.40L248.96-1.40Q250.28-1.40 251.54-1.90Q252.80-2.40 253.82-3.20Q254.84-4 255.50-5Q256.16-6 256.32-7L256.32-7L256.32-13.84Q255.84-15.04 255.04-16.06Q254.24-17.08 253.22-17.80Q252.20-18.52 251.02-18.94Q249.84-19.36 248.64-19.36L248.64-19.36Q246.76-19.36 245.28-18.56Q243.80-17.76 242.78-16.48Q241.76-15.20 241.22-13.58Q240.68-11.96 240.68-10.32L240.68-10.32Q240.68-8.52 241.32-6.92Q241.96-5.32 243.08-4.08Q244.20-2.84 245.72-2.12Q247.24-1.40 248.96-1.40Z M268.16 0L266.16 0L266.16-20.80L268.16-20.80L268.16 0ZM268.16-25.52L266.16-25.52L266.16-29.20L268.16-29.20L268.16-25.52Z M284.88 0.40L284.88 0.40Q282.68 0.40 280.80-0.46Q278.92-1.32 277.54-2.82Q276.16-4.32 275.38-6.28Q274.60-8.24 274.60-10.48L274.60-10.48Q274.60-12.68 275.38-14.62Q276.16-16.56 277.52-18.02Q278.88-19.48 280.74-20.32Q282.60-21.16 284.76-21.16L284.76-21.16Q286.96-21.16 288.84-20.30Q290.72-19.44 292.08-17.98Q293.44-16.52 294.20-14.58Q294.96-12.64 294.96-10.48L294.96-10.48Q294.96-10.28 294.96-9.98Q294.96-9.68 294.92-9.60L294.92-9.60L276.68-9.60Q276.80-7.80 277.52-6.26Q278.24-4.72 279.34-3.60Q280.44-2.48 281.88-1.84Q283.32-1.20 284.96-1.20L284.96-1.20Q286.04-1.20 287.08-1.50Q288.12-1.80 289.02-2.32Q289.92-2.84 290.62-3.58Q291.32-4.32 291.72-5.20L291.72-5.20L293.48-4.72Q293.04-3.60 292.18-2.66Q291.32-1.72 290.18-1.04Q289.04-0.36 287.68 0.02Q286.32 0.40 284.88 0.40ZM276.64-11.20L293.04-11.20Q292.92-13.04 292.22-14.56Q291.52-16.08 290.42-17.18Q289.32-18.28 287.88-18.90Q286.44-19.52 284.80-19.52L284.80-19.52Q283.16-19.52 281.72-18.90Q280.28-18.28 279.18-17.18Q278.08-16.08 277.42-14.54Q276.76-13 276.64-11.20L276.64-11.20Z M307.56 0.40L307.56 0.40Q305.16 0.40 302.96-0.40Q300.76-1.20 299.12-2.80L299.12-2.80L300.12-4.16Q301.80-2.64 303.60-1.92Q305.40-1.20 307.56-1.20L307.56-1.20Q310.28-1.20 311.94-2.34Q313.60-3.48 313.60-5.52L313.60-5.52Q313.60-6.48 313.18-7.14Q312.76-7.80 311.92-8.26Q311.08-8.72 309.84-9.08Q308.60-9.44 306.96-9.84L306.96-9.84Q305.20-10.24 303.90-10.64Q302.60-11.04 301.76-11.60Q300.92-12.16 300.50-12.96Q300.08-13.76 300.08-15L300.08-15Q300.08-16.56 300.68-17.72Q301.28-18.88 302.34-19.64Q303.40-20.40 304.78-20.78Q306.16-21.16 307.72-21.16L307.72-21.16Q310.16-21.16 312.04-20.34Q313.92-19.52 314.96-18.24L314.96-18.24L313.84-17.16Q312.80-18.36 311.14-18.96Q309.48-19.56 307.60-19.56L307.60-19.56Q306.44-19.56 305.42-19.32Q304.40-19.08 303.64-18.56Q302.88-18.04 302.44-17.22Q302.00-16.40 302.00-15.28L302.00-15.28Q302.00-14.36 302.30-13.80Q302.60-13.24 303.26-12.84Q303.92-12.44 304.96-12.14Q306.00-11.84 307.44-11.48L307.44-11.48Q309.40-11 310.92-10.56Q312.44-10.12 313.46-9.48Q314.48-8.84 315.02-7.96Q315.56-7.08 315.56-5.72L315.56-5.72Q315.56-2.92 313.38-1.26Q311.20 0.40 307.56 0.40Z M332.32-14.40L332.32-14.40Q332.32-16.96 333.22-19.50Q334.12-22.04 335.84-24.04Q337.56-26.04 340.06-27.30Q342.56-28.56 345.76-28.56L345.76-28.56Q349.56-28.56 352.24-26.82Q354.92-25.08 356.24-22.36L356.24-22.36L354.56-21.40Q353.80-22.88 352.78-23.88Q351.76-24.88 350.58-25.50Q349.40-26.12 348.12-26.40Q346.84-26.68 345.60-26.68L345.60-26.68Q342.88-26.68 340.80-25.58Q338.72-24.48 337.28-22.72Q335.84-20.96 335.10-18.74Q334.36-16.52 334.36-14.28L334.36-14.28Q334.36-11.76 335.24-9.48Q336.12-7.20 337.64-5.46Q339.16-3.72 341.24-2.68Q343.32-1.64 345.72-1.64L345.72-1.64Q347.00-1.64 348.36-1.96Q349.72-2.28 350.96-2.96Q352.20-3.64 353.28-4.70Q354.36-5.76 355.08-7.20L355.08-7.20L356.84-6.36Q356.12-4.76 354.88-3.52Q353.64-2.28 352.12-1.44Q350.60-0.60 348.90-0.18Q347.20 0.24 345.56 0.24L345.56 0.24Q342.64 0.24 340.22-1.04Q337.80-2.32 336.04-4.38Q334.28-6.44 333.30-9.06Q332.32-11.68 332.32-14.40Z M371.60 0.40L371.60 0.40Q369.40 0.40 367.54-0.46Q365.68-1.32 364.32-2.80Q362.96-4.28 362.20-6.24Q361.44-8.20 361.44-10.36L361.44-10.36Q361.44-12.56 362.22-14.52Q363.00-16.48 364.36-17.96Q365.72-19.44 367.58-20.30Q369.44-21.16 371.60-21.16L371.60-21.16Q373.76-21.16 375.60-20.30Q377.44-19.44 378.82-17.96Q380.20-16.48 380.98-14.52Q381.76-12.56 381.76-10.36L381.76-10.36Q381.76-8.20 380.98-6.24Q380.20-4.28 378.84-2.80Q377.48-1.32 375.62-0.46Q373.76 0.40 371.60 0.40ZM363.44-10.28L363.44-10.28Q363.44-8.44 364.08-6.82Q364.72-5.20 365.82-4Q366.92-2.80 368.40-2.10Q369.88-1.40 371.56-1.40L371.56-1.40Q373.24-1.40 374.72-2.10Q376.20-2.80 377.32-4.04Q378.44-5.28 379.08-6.90Q379.72-8.52 379.72-10.40L379.72-10.40Q379.72-12.24 379.08-13.86Q378.44-15.48 377.32-16.70Q376.20-17.92 374.74-18.64Q373.28-19.36 371.60-19.36L371.60-19.36Q369.92-19.36 368.44-18.64Q366.96-17.92 365.86-16.68Q364.76-15.44 364.10-13.78Q363.44-12.12 363.44-10.28Z M418.72-11.96L418.72 0L416.72 0L416.72-11.60Q416.72-15.56 415.50-17.44Q414.28-19.32 411.76-19.32L411.76-19.32Q410.48-19.32 409.32-18.84Q408.16-18.36 407.20-17.50Q406.24-16.64 405.54-15.46Q404.84-14.28 404.44-12.84L404.44-12.84L404.44 0L402.44 0L402.44-11.60Q402.44-15.60 401.24-17.46Q400.04-19.32 397.52-19.32L397.52-19.32Q396.24-19.32 395.10-18.86Q393.96-18.40 393.00-17.54Q392.04-16.68 391.30-15.50Q390.56-14.32 390.16-12.88L390.16-12.88L390.16 0L388.16 0L388.16-20.80L390.04-20.80L390.04-15.84Q391.32-18.36 393.40-19.76Q395.48-21.16 398.00-21.16L398.00-21.16Q400.64-21.16 402.28-19.60Q403.92-18.04 404.24-15.52L404.24-15.52Q407.20-21.16 412.40-21.16L412.40-21.16Q415.80-21.16 417.26-18.74Q418.72-16.32 418.72-11.96L418.72-11.96Z M436.52 0.40L436.52 0.40Q433.84 0.40 431.74-1.02Q429.64-2.44 428.36-4.48L428.36-4.48L428.36 8.52L426.36 8.52L426.36-20.80L428.20-20.80L428.20-16.64Q429.48-18.64 431.58-19.90Q433.68-21.16 436.08-21.16L436.08-21.16Q438.24-21.16 440.08-20.24Q441.92-19.32 443.24-17.82Q444.56-16.32 445.30-14.36Q446.04-12.40 446.04-10.36L446.04-10.36Q446.04-8.20 445.36-6.24Q444.68-4.28 443.42-2.80Q442.16-1.32 440.40-0.46Q438.64 0.40 436.52 0.40ZM436.04-1.40L436.04-1.40Q437.84-1.40 439.32-2.16Q440.80-2.92 441.84-4.18Q442.88-5.44 443.44-7.06Q444.00-8.68 444.00-10.36L444.00-10.36Q444.00-12.16 443.36-13.78Q442.72-15.40 441.58-16.64Q440.44-17.88 438.92-18.62Q437.40-19.36 435.68-19.36L435.68-19.36Q434.60-19.36 433.38-18.90Q432.16-18.44 431.08-17.66Q430.00-16.88 429.24-15.88Q428.48-14.88 428.36-13.76L428.36-13.76L428.36-6.92Q428.88-5.76 429.68-4.76Q430.48-3.76 431.48-3Q432.48-2.24 433.64-1.82Q434.80-1.40 436.04-1.40Z M457.56 0.40L457.56 0.40Q456.12 0.40 454.88-0.10Q453.64-0.60 452.70-1.46Q451.76-2.32 451.24-3.50Q450.72-4.68 450.72-6.04L450.72-6.04Q450.72-7.40 451.36-8.52Q452.00-9.64 453.14-10.46Q454.28-11.28 455.88-11.74Q457.48-12.20 459.40-12.20L459.40-12.20Q461.08-12.20 462.78-11.90Q464.48-11.60 465.84-11.08L465.84-11.08L465.84-13.12Q465.84-16.08 464.16-17.82Q462.48-19.56 459.60-19.56L459.60-19.56Q458.08-19.56 456.38-18.92Q454.68-18.28 452.92-17.08L452.92-17.08L452.16-18.44Q456.16-21.16 459.76-21.16L459.76-21.16Q463.52-21.16 465.68-18.98Q467.84-16.80 467.84-12.96L467.84-12.96L467.84-2.80Q467.84-1.80 468.72-1.80L468.72-1.80L468.72 0Q468.52 0.04 468.30 0.06Q468.08 0.08 467.92 0.08L467.92 0.08Q467.12 0.08 466.64-0.46Q466.16-1 466.08-1.76L466.08-1.76L466.08-3.48Q464.64-1.60 462.40-0.60Q460.16 0.40 457.56 0.40ZM457.96-1.20L457.96-1.20Q460.28-1.20 462.22-2.08Q464.16-2.96 465.20-4.40L465.20-4.40Q465.84-5.24 465.84-6L465.84-6L465.84-9.68Q464.40-10.24 462.84-10.52Q461.28-10.80 459.60-10.80L459.60-10.80Q458.04-10.80 456.76-10.46Q455.48-10.12 454.56-9.52Q453.64-8.92 453.14-8.06Q452.64-7.20 452.64-6.16L452.64-6.16Q452.64-5.12 453.04-4.20Q453.44-3.28 454.16-2.62Q454.88-1.96 455.86-1.58Q456.84-1.20 457.96-1.20Z M492.52-11.96L492.52 0L490.52 0L490.52-11.60Q490.52-15.64 489.38-17.48Q488.24-19.32 485.76-19.32L485.76-19.32Q484.44-19.32 483.14-18.84Q481.84-18.36 480.72-17.48Q479.60-16.60 478.76-15.42Q477.92-14.24 477.52-12.88L477.52-12.88L477.52 0L475.52 0L475.52-20.80L477.40-20.80L477.40-15.84Q478.04-17.04 478.98-18.02Q479.92-19 481.10-19.70Q482.28-20.40 483.60-20.78Q484.92-21.16 486.32-21.16L486.32-21.16Q489.72-21.16 491.12-18.78Q492.52-16.40 492.52-11.96L492.52-11.96Z M501.08 8.88L501.08 7.04Q501.28 7.08 501.68 7.08L501.68 7.08Q502.08 7.08 502.42 7.04Q502.76 7 503.08 6.84L503.08 6.84Q503.32 6.72 503.52 6.50Q503.72 6.28 504.08 5.60Q504.44 4.92 505.00 3.60Q505.56 2.28 506.52 0L506.52 0L497.24-20.80L499.32-20.80L507.60-1.96L515.32-20.80L517.28-20.80L505.88 6.56Q505.44 7.68 504.46 8.30Q503.48 8.92 501.80 8.92L501.80 8.92Q501.64 8.92 501.46 8.92Q501.28 8.92 501.08 8.88L501.08 8.88Z"/></g>
</svg>
</g></svg>