<svg id="Layer_5" enable-background="new 0 0 64 64" height="512" viewBox="0 0 64 64" width="512" xmlns="http://www.w3.org/2000/svg"><g><g><g><path d="m41 10v4c0 1.1-.9 2-2 2h-9-4-9c-1.1 0-2-.9-2-2v-6h4l2 4 4-7 3 5h3l2-4 2 4z" fill="#69d6f4"/></g><g><path d="m17 2h22c1.1 0 2 .9 2 2v6h-6l-2-4-2 4h-3l-3-5-4 7-2-4h-4v-4c0-1.1.9-2 2-2z" fill="#69d6f4"/></g><g><path d="m30 16v7.06l-2-.17-2-.18v-6.71z" fill="#838f9b"/></g><g><path d="m50.25 24.85-32.17-2.84c-.05-.01-.11-.01-.16-.01-.53 0-1.01.22-1.36.56-.12.13-.23.27-.33.43.01.01.01.01 0 .01-.14.28-.23.59-.23.92v8.08h36v-5.25c0-.99-.76-1.82-1.75-1.9z" fill="#e6e9ed"/></g><g><path d="m16.23 22.99c.01.01.01.01 0 .01-.14.28-.23.59-.23.92v7.32l-8-8-4-4-1.12-1.12c-.57-.57-.88-1.32-.88-2.12s.31-1.55.88-2.12 1.32-.88 2.12-.88 1.55.31 2.12.88z" fill="#fcd770"/></g><g><path d="m8 23.24v8.76h-4v-12.76z" fill="#ccd1d9"/></g><g><path d="m62 20v16c0 1.1-.9 2-2 2h-2v-6-14h2c1.1 0 2 .9 2 2z" fill="#aab2bd"/></g><g><path d="m58 32v6h-9-30-15c-1.1 0-2-.9-2-2v-2c0-1.1.9-2 2-2h4 8 6 6 6 6 6 6z" fill="#aab2bd"/></g><g><path d="m53 48.42v3.58c0 .55-.22 1.05-.59 1.41-.36.37-.86.59-1.41.59-1.1 0-2-.9-2-2v-3.58-4.19-1.23c0-.55-.45-1-1-1h-28c-.55 0-1 .45-1 1v1.23 4.19 3.58c0 .55-.22 1.05-.59 1.41-.36.37-.86.59-1.41.59-1.1 0-2-.9-2-2v-3.58-4.19-2.23c0-2.21 1.79-4 4-4h30c2.21 0 4 1.79 4 4v2.23z" fill="#ccd1d9"/></g><g><path d="m19 44.23c4.01.91 7 4.49 7 8.77 0 4.97-4.03 9-9 9s-9-4.03-9-9c0-4.28 2.99-7.86 7-8.77v4.19c-1.76.77-3 2.53-3 4.58 0 2.76 2.24 5 5 5s5-2.24 5-5c0-2.05-1.24-3.81-3-4.58z" fill="#aab2bd"/></g><g><path d="m53 44.23c4.01.91 7 4.49 7 8.77 0 4.97-4.03 9-9 9s-9-4.03-9-9c0-4.28 2.99-7.86 7-8.77v4.19c-1.76.77-3 2.53-3 4.58 0 2.76 2.24 5 5 5s5-2.24 5-5c0-2.05-1.24-3.81-3-4.58z" fill="#aab2bd"/></g></g><path d="m60 17h-3v14h-4v-4.246c0-1.522-1.143-2.771-2.659-2.904l-19.341-1.707v-5.143h8c1.654 0 3-1.346 3-3v-10c0-1.654-1.346-3-3-3h-22c-1.654 0-3 1.346-3 3v10c0 1.654 1.346 3 3 3h8v4.614l-6.83-.603c-.726-.064-1.401.159-1.948.555l-8.394-8.395c-.755-.754-1.759-1.171-2.828-1.171s-2.073.417-2.828 1.171c-.755.756-1.172 1.76-1.172 2.829s.417 2.073 1.172 2.828l.828.828v11.528c-1.161.414-2 1.514-2 2.816v2c0 1.654 1.346 3 3 3h11.026c-.635.838-1.026 1.87-1.026 3v1.467c-4.159 1.297-7 5.108-7 9.533 0 5.514 4.486 10 10 10s10-4.486 10-10c0-4.425-2.841-8.236-7-9.533v-.467h28v.467c-4.159 1.297-7 5.107-7 9.533 0 5.514 4.486 10 10 10s10-4.486 10-10c0-4.425-2.841-8.236-7-9.533v-1.467c0-1.13-.391-2.162-1.026-3h4.026 1 2c1.654 0 3-1.346 3-3v-16c0-1.654-1.346-3-3-3zm-9 9.754v4.246h-4v-5.437l3.165.279c.476.042.835.434.835.912zm-28 4.246v-7.555l4 .353v7.202zm6-7.026 4 .353v6.673h-4zm6 .53 4 .353v6.143h-4zm6 .529 4 .353v5.614h-4zm-24-22.033h22c.551 0 1 .449 1 1v5h-4.382l-2.618-5.236-2.618 5.236h-1.815l-3.587-5.979-3.92 6.86-1.442-2.881h-3.618v-3c0-.551.449-1 1-1zm-1 11v-5h2.382l2.56 5.119 4.08-7.14 2.412 4.021h4.185l1.381-2.764 1.382 2.764h5.618v3c0 .551-.449 1-1 1h-22c-.551 0-1-.449-1-1zm11 3h2v4.967l-2-.176zm-9.011 6.003h.007l3.004.265v7.732h-4v-7.084c0-.503.407-.913.989-.913zm-3.645 7.997h-5.344v-5.344zm-10.758-16.414c.755-.756 2.072-.756 2.828 0l8.667 8.667c-.05.214-.081.434-.081.663v4.913l-11.414-11.415c-.378-.378-.586-.88-.586-1.414s.208-1.036.586-1.414zm3.414 9.07v7.344h-2v-9.344zm13 28.344v-1.64c.632.716 1 1.649 1 2.64 0 2.206-1.794 4-4 4s-4-1.794-4-4c0-.991.368-1.924 1-2.64v1.64c0 1.654 1.346 3 3 3s3-1.346 3-3zm5 1c0 4.411-3.589 8-8 8s-8-3.589-8-8c0-3.323 2.003-6.21 5-7.41v2.232c-1.838 1.065-3 3.025-3 5.178 0 3.309 2.691 6 6 6s6-2.691 6-6c0-2.153-1.162-4.113-3-5.178v-2.232c2.997 1.2 5 4.087 5 7.41zm29-1v-1.64c.632.716 1 1.649 1 2.64 0 2.206-1.794 4-4 4s-4-1.794-4-4c0-.991.368-1.924 1-2.64v1.64c0 1.654 1.346 3 3 3s3-1.346 3-3zm5 1c0 4.411-3.589 8-8 8s-8-3.589-8-8c0-3.323 2.003-6.21 5-7.41v2.232c-1.838 1.065-3 3.025-3 5.178 0 3.309 2.691 6 6 6s6-2.691 6-6c0-2.153-1.162-4.113-3-5.178v-2.232c2.997 1.2 5 4.087 5 7.41zm-7-11v10c0 .551-.449 1-1 1s-1-.449-1-1v-9c0-1.103-.897-2-2-2h-28c-1.103 0-2 .897-2 2v9c0 .551-.449 1-1 1s-1-.449-1-1v-10c0-1.654 1.346-3 3-3h30c1.654 0 3 1.346 3 3zm-3-5h-30-15c-.551 0-1-.449-1-1v-2c0-.551.449-1 1-1h53v4zm12-1c0 .551-.449 1-1 1h-1v-18h1c.551 0 1 .449 1 1z"/></g></svg>